# xmcd
#
# Track frame offsets: 
#        150
#        24263
#        39151
#        62895
#        86817
#        103625
#        121057
#        143263
#        158979
#        186442
#        207108
#        225528
#
# Disc length: 3534 seconds
#
# Revision: 0
# Processed by: cddbd v1.5.2PL0 Copyright (c) Steve Scherf et al.
# Submitted via: ExactAudioCopy v0.99pb5
#
DISCID=920dcc0c
DTITLE=PInetop Perkins - Sweet Black Angel
DYEAR=1998
DGENRE=Blues
TTITLE0=Lend Me Your Love
TTITLE1=What's The Matter With You
TTITLE2=Five Long Years
TTITLE3=Down The Road I'll Go
TTITLE4=View From The Top
TTITLE5=Look On Yonder Wall
TTITLE6=Who's Ol' Muddy Shoes
TTITLE7=I'd Rather Quit Her Than Hit Her
TTITLE8=Rain
TTITLE9=Pinetop's Special
TTITLE10=How Long Blues
TTITLE11=Sweet Black Angel
EXTD=
EXTT0=Lend Me Your Love
EXTT1=
EXTT2=
EXTT3=
EXTT4=
EXTT5=
EXTT6=
EXTT7=
EXTT8=
EXTT9=
EXTT10=
EXTT11=
PLAYORDER=
